<svg xmlns="http://www.w3.org/2000/svg" width="1024" height="1024" viewBox="0 0 1024 1024" role="img" aria-label="QR code to download the Murph Tournament Mobile App Android alpha">
  <rect width="1024" height="1024" fill="#ffffff" />
  <rect x="64" y="64" width="896" height="896" fill="none" stroke="#111111" stroke-width="16"/>

  <rect x="120" y="120" width="240" height="240" fill="#111111"/>
  <rect x="176" y="176" width="128" height="128" fill="#ffffff"/>
  <rect x="664" y="120" width="240" height="240" fill="#111111"/>
  <rect x="720" y="176" width="128" height="128" fill="#ffffff"/>
  <rect x="120" y="664" width="240" height="240" fill="#111111"/>
  <rect x="176" y="720" width="128" height="128" fill="#ffffff"/>

  <g fill="#111111">
    <rect x="432" y="120" width="48" height="48"/>
    <rect x="528" y="120" width="48" height="48"/>
    <rect x="576" y="168" width="48" height="48"/>
    <rect x="432" y="216" width="48" height="48"/>
    <rect x="528" y="216" width="48" height="48"/>
    <rect x="384" y="312" width="48" height="48"/>
    <rect x="480" y="312" width="48" height="48"/>
    <rect x="576" y="312" width="48" height="48"/>
    <rect x="672" y="408" width="48" height="48"/>
    <rect x="576" y="456" width="48" height="48"/>
    <rect x="432" y="456" width="48" height="48"/>
    <rect x="336" y="456" width="48" height="48"/>
    <rect x="384" y="552" width="48" height="48"/>
    <rect x="480" y="552" width="48" height="48"/>
    <rect x="576" y="552" width="48" height="48"/>
    <rect x="672" y="552" width="48" height="48"/>
    <rect x="432" y="648" width="48" height="48"/>
    <rect x="528" y="648" width="48" height="48"/>
    <rect x="624" y="648" width="48" height="48"/>
    <rect x="384" y="744" width="48" height="48"/>
    <rect x="480" y="744" width="48" height="48"/>
    <rect x="576" y="744" width="48" height="48"/>
    <rect x="672" y="744" width="48" height="48"/>
    <rect x="432" y="840" width="48" height="48"/>
    <rect x="528" y="840" width="48" height="48"/>
    <rect x="624" y="840" width="48" height="48"/>
    <rect x="720" y="840" width="48" height="48"/>
  </g>
</svg>
